<?xml version="1.0" encoding="utf-8"?>
<!-- Generated by IcoMoon.io -->
<!DOCTYPE svg PUBLIC "-//W3C//DTD SVG 1.1//EN" "http://www.w3.org/Graphics/SVG/1.1/DTD/svg11.dtd">
<svg version="1.1" xmlns="http://www.w3.org/2000/svg" xmlns:xlink="http://www.w3.org/1999/xlink" width="512" height="512" viewBox="0 0 512 512">
<g>
</g>
	<path d="M7029.965 37002.681c0 15.394-12.48 27.874-27.873 27.874-15.394 0-27.873-12.48-27.873-27.874 0-15.394 12.48-27.874 27.873-27.874 15.394 0 27.873 12.48 27.873 27.874z" fill="#000000" />
	<path d="M6832.282 37085.624l-1.218 0.215-1.177 0.563z" fill="#000000" />
	<path d="M6870.681 37069.957l-0.051-0.502c-0.113-0.942-0.072-1.863-0.041-2.775l-39.526 19.149 1.218-0.215-2.386 0.778 1.167-0.563-20.89 3.645 30.966 5.56 34.498-12.165-4.792-12.462-0.164-0.45z" fill="#000000" />
	<path d="M6844.068 37101.056l-2.233-0.399-2.099 0.707z" fill="#000000" />
	<path d="M6877.44 37088.921l-35.605 11.735 2.233 0.399-4.332 0.297 2.099-0.696-72.212-12.861-2.663 1.382-26.276 23.327 29.757-6.533-0.973-0.185 5.611-0.84-4.639 1.024 72.704 12.944 2.15-0.696 47.626-15.719c-3.123-0.717-6.073-2.038-8.663-4.065-3.175-2.519-5.448-5.817-6.82-9.513z" fill="#000000" />
	<path d="M6769.48 37105.797l0.973 0.185 4.639-1.024z" fill="#000000" />
	<path d="M6878.535 37067.366c0 0.297-0.113 0.573-0.092 0.912l4.598 11.981 1.813-0.645-6.318-12.247z" fill="#000000" />
	<path d="M6885.079 37086.402c0.87 2.253 2.119 4.321 4.065 5.857 2.898 2.304 6.502 3.318 10.168 2.898 0 0 2.498-0.297 6.38-0.738l-4.403-13.363-16.21 5.346z" fill="#000000" />
	<path d="M6997.391 37038.622h-0.092l0.020 0.082z" fill="#000000" />
	<path d="M6876.16 37083.904c0.041 0.256 0.133 0.522 0.174 0.778l0.072 0.185-0.246-0.963z" fill="#000000" />
	<path d="M6978.887 37030.635l0.123 0.020 0.409-0.103z" fill="#000000" />
	<path d="M6878.434 37068.575c-0.020-0.113 0.020-0.215 0.020-0.287l-0.246-0.676 0.225 0.963z" fill="#000000" />
	<path d="M7061.985 37029.868l-63.815 12.585-24.167 5.264c5.427 6.082 18.473 16.589 31.181 29.122l60.877-32.082 184.709 7.004 2.078-11.315-190.864-10.578z" fill="#000000" />
	<path d="M7081.626 37082.696l-6.451-4.188-5.52 5.468z" fill="#000000" />
	<path d="M7102.331 37051.556l-27.157 26.952 6.451 4.188-11.971 1.28 5.52-5.468-27.648-17.838-19.671 10.086 49.89 32.226 5.499-5.478 43.12-44.964z" fill="#000000" />
	<path d="M7029.637 37089.065l-5.673-4.649-6.492 5.223z" fill="#000000" />
	<path d="M7066.736 37050.204l-42.773 34.212 5.673 4.649-12.165 0.573 6.492-5.223-8.766-7.137-10.834 5.56-3.4-2.704-34.97-33.26-8.468 11.796 66.959 50.463 5.878-5.315 58.675-52.9z" fill="#000000" />
	<path d="M6970.43 37040.702l-3.789 5.274 7.711-2.079z" fill="#000000" />
	<path d="M6965.412 37046.302l0.583 0.573 0.645-0.901z" fill="#000000" />
	<path d="M6966.641 37045.975l7.711-2.079c0 0 16.773-3.881 18.821-4.423-2.222-5.683-7.824-9.503-14.162-8.817l-88.412 22.518c-7.178 0.84-12.267 7.096-12.052 14.192l6.318 12.247-1.813 0.645 0.686 1.792 0.185 0.45 0.051 0.502c0.133 1.198 0.666 2.304 1.106 3.399l16.22-5.335 4.403 13.363c19.763-2.304 79.544-9.277 79.565-9.277 2.058-0.215 3.953-1.116 5.703-2.283l-12.913-24.535-12.052-11.448 0.635-0.912z" fill="#000000" />
	<path d="M136.263 353.024c0 0 53.657-45.476 52.040-113.746 0 0 0-84.51 19.497-108.903 0 0-21.913 99.82 19.917 145.439 41.831 45.63 145.828 26.839 145.828 26.839s-39.004 22.774-120.238 16.261c0 0-65.004 19.497-94.259 53.647l-22.784-19.538z" fill="#000000" />
	<path d="M137.923 354.98c0.542-0.461 54.579-47.084 52.941-115.774 0-0.778 0.215-83.835 18.934-107.233l-4.495-2.161c-0.901 4.137-21.719 101.653 20.521 147.722 42.301 46.142 143.872 28.406 148.173 27.627l-1.751-4.731c-0.379 0.215-39.424 22.282-118.743 15.923l-0.482-0.041-0.461 0.144c-2.683 0.788-66.048 20.111-95.458 54.416l3.614-0.276-22.784-19.517-0.010 3.901zM160.994 374.221c28.416-33.178 92.395-52.675 93.040-52.859l-0.942 0.103c82.258 6.605 121.498-16.425 121.856-16.671l-1.863-4.659c-1.034 0.195-103.086 18.012-143.493-26.050-40.458-44.124-19.517-142.172-19.303-143.155l-4.495-2.15c-19.835 24.791-20.050 106.998-20.050 110.5 1.566 66.345-50.606 111.36-51.138 111.81l-2.294 1.935 27.013 23.132 1.669-1.935z" fill="#000000" />
	<path d="M50.544 490.301c-10.906 11.254-26.501 13.803-34.888 5.683v0c-8.386-8.141-6.359-23.849 4.537-35.082l81.552-84.183c10.895-11.243 26.512-13.803 34.908-5.663v0c8.356 8.079 6.328 23.808-4.567 35.062l-81.541 84.183z" fill="#000000" />
	<path d="M48.702 488.53c-9.892 10.189-23.921 12.708-31.273 5.611-2.796-2.724-4.322-6.543-4.393-11.038-0.102-6.882 3.256-14.5 8.991-20.418l81.552-84.183c9.892-10.199 23.931-12.738 31.293-5.601 7.342 7.096 5.274 21.217-4.629 31.437l-81.541 84.193zM133.929 407.9c11.858-12.257 13.886-29.604 4.516-38.676-9.39-9.083-26.675-6.523-38.533 5.735l-81.552 84.173c-6.758 6.963-10.557 15.739-10.434 24.074 0.092 5.888 2.151 10.926 5.95 14.633 9.38 9.063 26.654 6.502 38.513-5.745l81.541-84.194z" fill="#000000" />
	<path d="M252.18 63.089c-23.839 22.2-42.158 49.101-52.951 77.793-20.081 53.31-12.575 106.107 20.071 141.23 21.248 22.815 51.825 36.034 86.118 37.243 46.725 1.649 95.815-18.176 134.677-54.405 38.933-36.239 62.208-83.825 63.877-130.56 1.239-34.765-9.482-65.341-30.997-88.443-51.815-55.654-150.856-47.954-220.795 17.142zM458.005 59.904c17.726 19.036 26.563 44.554 25.508 73.749-1.474 41.359-22.385 83.732-57.365 116.296-34.928 32.553-78.674 50.381-120.013 48.917-29.235-1.024-54.077-11.643-71.844-30.72-27.238-29.297-33.188-74.178-15.903-120.054 9.687-25.754 26.204-49.961 47.749-70.021 61.675-57.395 147.733-65.556 191.867-18.166z" fill="#000000" />
	<path d="M390.184 37.191l-172.986 165.002-5.3-5.557 172.986-165.001 5.3 5.557z" fill="#000000" />
	<path d="M443.397 54.486l-214.25 200.944-5.254-5.602 214.25-200.944 5.254 5.602z" fill="#000000" />
	<path d="M475.39 94.4l-204.938 196.951-5.322-5.538 204.938-196.951 5.322 5.537z" fill="#000000" />
	<path d="M478.124 151.531l-142.38 145.042-5.481-5.38 142.38-145.042 5.481 5.38z" fill="#000000" />
	<path d="M470.016 190.171l-143.72-143.72 5.43-5.431 143.72 143.72-5.43 5.43z" fill="#000000" />
	<path d="M438.034 236.698l-158.357-162.326 5.498-5.363 158.357 162.326-5.498 5.363z" fill="#000000" />
	<path d="M394.142 267.314l-150.35-151.674 5.454-5.406 150.35 151.674-5.454 5.406z" fill="#000000" />
	<path d="M339.538 287.243l-122.418-126.412 5.51-5.336 122.418 126.412-5.51 5.336z" fill="#000000" />
	<path d="M218.388 435.856c0 31.99 25.794 57.918 57.621 57.918 4.209 0 8.346-0.461 12.278-1.321-3.287-5.356-12.514-17.899-30.034-25.221-0.891-0.42-21.75-10.281-26.225-28.621-2.437-9.943 0.358-20.265 8.356-30.597l-0.226 0.256c0.42-0.594 9.493-14.244 24.648-15.657 9.984-0.921 19.947 3.635 29.563 13.639l0.307 0.297 0.226 0.358c5.642 8.694 23.163 30.515 38.687 30.935 0.010-0.656 0.031-1.321 0.031-1.997 0-31.959-25.815-57.918-57.62-57.918-31.826 0.010-57.61 25.969-57.61 57.928z" fill="#000000" />
	<path d="M287.673 412.221c-7.495-7.752-14.93-11.366-21.995-10.721-10.803 1.003-17.982 11.561-18.023 11.663l-0.113 0.164-0.102 0.144c-6.236 8.079-8.51 15.841-6.748 23.019 3.44 14.142 21.125 22.558 21.166 22.558 22.077 9.298 32.481 25.815 35.226 30.72 18.135-7.178 31.815-23.317 35.533-43.018-22.036-1.29-42.24-30.515-44.944-34.529z" fill="#000000" />
</svg>
